/* XPM */
static char *logo_xpm[] = {
/* width height num_colors chars_per_pixel */
"   192    48       16            1",
/* colors */
"` c #156385",
". c #90b8c8",
"# c #d1e2e9",
"a c #548ea7",
"b c #74a2b9",
"c c #ecf4f4",
"d c #b1ccd9",
"e c #3d7e9c",
"f c #e0ecf0",
"g c #2c7294",
"h c #a4c6d4",
"i c #6498b0",
"j c #84aebf",
"k c #c4d6dc",
"l c #fcfefc",
"m c #9cbecc",
/* pixels */
"lllllllllllllllllda````i#lllllllllllllllllllllllllllllllllllllllllllllllllllllllllllllllllllllllllllllllllllllllllllllllllllllllllllllllllllllllllllllllllllllllllllllllllllllllllllllllllllllll",
"lllllllllllllllllg`eaae`blllllllllllllllllllllllllllllllllllllllllllllllllllllllllllllllllllllllllllllllllllllllllllllllllllllllllllllllllllllllllllllllllllllllllllllllllllllllllllllllllllllll",
"lllllllllllllllllgmllllibllllllllllllllllllllllllllllllllllllllllllllllllllllllllllllllllllllllllllllllllllllllllllllllllllllllllllllllllllllla.llllllllllllllllllllllllllllllllllllllllllllllll",
"lllllllllllla.lhg`.lllla`a#lajlllllllllllllllllllllllllllllllllllllllllllllllllllllllllllllllllllllllllllllllllllllllllllllllllllllllllllllllleallllllllllllllllllllllllllllllllllllllllllllllll",
"llllllllllle`ge`aklllllcde`a``blllllllllllllllllllllllllllllllllllllllllllllllllllllllllllllllllllllllllllllllllllllllllllllllllllllllll##llll`ellllllllllllllllllllllllllllllllllllllllllllllll",
"llllllllllgelgefllllllllllk`i#`bllllllllllllllllllllllllllllllllllllllllllllllllllllllllllllllllllllllllllll##lllllllllllllcdllllllllllli`kcld`k.`illlllllllllllllllllllllllllllllllllllllllllll",
"llllllllleellflllheg```iklllcl#`.lllllllllllllllllllllllllllllllllllllllclllllllll.aalllllllllllllllllllllllb`#lfhlllllllll#`.llllllllllf`elledd``jlllllllllllllllllllllllllllllllllllllllllllll",
"llllllll.`cllllm``gijji``eklllld`#lllllllllllllllllllllflllllllllllllldg`dlllllllle``fllllllllllllllllllllllj`kc``mllllllll#`elllllllllll`bfabde`allllllllllllllllllllllllllllllllllllllllllllll",
"lllllll#`#lllla`afllllllde`jlllljglllllllllllllllllllllihllllllllllllj``g#llllllll#ic.ifllllllllllllllllllll.`cjg`illllllllf`gllllllllljkeh.`ealacllllllllllllllllllllllllllllllllllllmhllllllll",
"lllllllb`flllg`kllll##llllj`blllf`hlllllllllllllllllllle`clllllllllceihjllllllllllllh``jllllllllllllllllllllj`biiafk#llllllf`ellllllllleeaajeb.hbllllllllllllllllllccllllllllla.llllllg`hlllllll",
"llllllllgella`clllllffllllld`jllgalllllllllllllllllllll``kllllllll#gicllllllfdlllllh..ghllllllllllllllllllflibibafa`allllllf`allllllllldee`#jk.bfllllllllllfllllc.egg#llllllll`allllllg`flllllll",
"llllllllgdlb`fllllll#fllllll.`#laillllllllllllllllllll#``clllllllh`b.`e#llllh`hlfhi.lllllllllllllllllllllcg.`.l`eaegbllllllf`.lllllllll#`ek`g.`jfdlllllklll`dlli```#h`lllllllc`hlk.llle`lll#flll",
"lllllll.el#`mlllllll##llllllli`lc`flllllllllllllll.dll.`.lllllcka`a`i``bllllc`ef.gjcfclllllllllllbbllllllc`g.iahlllllllllllf`dlc#lllllld`mi``hejg`#lllj.lll``lbb`da#a`jlllllll`#lb`##leglll#afll",
"lllllllgdlaellllllllk#lllllllc`.lailllllllllllll#b``fle`llllla```hf`a#gblllllee#al#ajblllllllllca``hllllllacd`...llllllllll#`#lf`mlllllg`lj#.bea`alllhbllllb`melefehjj#llllllc`flje.`dagllll#all",
"lllllbjgl#`#llllllll.hlllllllljgl#gkdllllllll#e#b```hc`glllllj``egk`jl``cllllbfb`e`haelllllljea````illlllll#gkh``llllllllll#`lfe`elllllbdcfhe`.f`cllcellllllfdgfglegdllllllllcgd#jah`ha`lllllj.l",
"llllf``blbellllllll#egfllllllll`klg`gllllllllc`glb``f.`gkllllldk``.`fi``dlllcmlbmfgbghllllllb``e.`gfllllllh``iaidllllllllll#`b`gekllllbllg``.ckgdlllj.llllfllllaglkekllllllchb``g.bh`#agllllllac",
"llllmed#l`dlllllllllialllllllllaalh.gflllllllle`li`dl`adallllllb`if`ebb`clllkhllk#`gllllllllfggci`cllll##j`jgbimlllllllllllm``mllllllbgllb`kljgfllllaflllf`.llca#..fdllllll#````.mid`#i`llllllib",
"llllbjll#`clllllllld.ahlllllllldgllledlllllllle`.`glk`kl`mlllld`jch`gaaallll.bl.`.g#.clllllllll#`#llllf```jlli``cllllllllli`ellllllld`dllllj``ellllfellll#`hlfll#````.lllllc```bljih`figllllllm`",
"llllehll.elllllllllj#h.llllllllc`fllijllllllllg````kaelce`ejclckki``jjiallll.ghhfe`a`dlllllllllehfhlllla``cca`g#lllllllm.geiellllllla`gdlllf.`allll#allllhgl#..g```gamllllllhi`ikjik`ciglllllld`",
"lllle#lliilllllllllhbjflllllllllghll.illlllllc``df#h`geei``elllljeme`gaallll.ahlmg..`#llllllllm`j``klllc.flfba`aclllllm``albeefllllla``fllllaelk#llkalllljjljb`````fllllllllld``fijd`ligllllllh`",
"lllcgclle.llllllll#bj..fllllllllajllhallllllll`glllgeegklaicllll#big.hgallllhjkk`mkh`llllllllf```bjcllllllll#e`dlllllla``llgk.alllll.`illllf`ge`ellkalllljdlgkdla``elllllllll.`alg#k`lbglllllld`",
"lllfelllghllllllllkiibiflllllllliilldellllllllk#lli`#llcfllllll#a`ae#.aellllkbg`aa`bglllllllcg`aclllllllllllce``flllllmeflk`cl`mllllcjllf#ig``ae.llcallllj##`ll.`gg`illlllllf``c#`cchlb`llllll.`",
"lllfgkclgkllfdkdkdmbiiihkdkdkfllbill#elllllllllllh`gllk`bllllll.`g`ib`eallllheeedeamglllldaa``gllllllllllllh```ba.lllllllleglla`biallll#```degllllllaflll.meal.`fiblgemllllcg`dla`flllj`lllllli.",
"lllf``mlgklmaaeaaaebiibaaaaaeaklbilb`elllllllllld`geig``hllllll`eeagaeealllleelldeaagllllh````fllllllllllllkaj`#j`dllllllb`dlld```blllllig#legllllll.jlllk``hj`dlabld``g.clc`il.`bllllj`lllllcal",
"llllhgjledlkjbbbbjjbibb.bbbbbjclibleehlllllllllm``cj`#b`llllllc``bgglleelllc`ellmga#allllli``mllllllllllllll.k`d.`jllldag`illlli`alllllllllle`llllllcaclllggfehllajlle```cllkcleblllll.`fllllihl",
"fh..i`e.eifcjaiiaibbbibbaiiai.l#gaj`ej..kllllke`eflb`lje#lllllc``lj`cheelll#`gll#a`bamlllllffllllllllllllhbeij`k.`mlll#``jllllllclllllllll#me`lllllllkalllkhlllhj`mllllcclllllllllllllj`#lllhill",
"#.j.mjmh.hdkmiibijbbaabjibbbi.#mmmjjbbjj.cllcag.llla`d``hllllllgalhglb`gllll``lllei#``blllllllllllllllllla``fg`kl#llllllclllllllllllllllllf``gllllllllhjcllllllfa`allllllllllllllllllle`#llkicll",
"l.ai.ijme.#ddjj.bhjb..j..jjjjh#kbiiieeaibclllllllllf.mbdlllllllclllflk`ellllbelldgclb`gllllllllllllllllllkemlballllllllllllllllllllllllllllk`.lllllllllflllllllll##llllllllllllllllllla`dllfllll",
"cmabjbh.a.kdhjbjb.bdffkbjjjjjm#dbiiiaaabbcllllllllllllllllllllllllllllkklllllflllclllemllllllllllllllllllllllllllllllllllllllllllllllllllllljcllllllllllllllllllllllllllllllllllllllllldflllllll",
"lhb..ijdbh#k.iaiaheagggehaiaamf#jjbjbab.jcllllllllllllllllllllllllllllllllllllllllllllllllllllllllllllllllllllllllllllllllllllllllllllllllllllllllllllllllllllllllllllllllllllllllllllllllllllll",
"kjaijbjjaj#dbaaiajgg`g`gjaaiibdmbbiiaaabifllllllllllllllllllllllllllllllllllllllllllllllllllllllllllllllllllllllllllllllllllllllllllllllllllllllllllllllllllllllllllllllllllllllllllllllllllllll",
"..m..ab.m.`j.mjb.bhddddhj.bj.mge..mibmm..fllllllllllllllllllllllllllllllllllllllllllllllllllllllllllllllllllllllllllllllllllllllllllllllllllllllllllllllllllllllllllllllllllllllllllllllllllllll",
"lllllibllleallllflllllllcfllll`.lllgdlllllllllllllllllllllllllllllllllllllllllllllllllllllllllllllllllllllllllllllllllllllllllllllllllllllllllllllllllllllllllllllllllllllllllllllllllllllllllll",
"lllll#`lll#`dlllljcbd.hmmllllbgllldgllllllllllllllllllllllllllllllllllllllllllllllllllllllllllllllllllllllllllllllllllllllllllllllllllllllllllllllllllllllllllllllllllllllllllllllllllllllllllll",
"lllllle.lllb`flll.cbm#mmmllld`dlllejllllllllllllllllllllllllllllllllllllllllllllllllllllllllllllllllllllllllllllllllllllllllllllllllllllllllllllllllllllllllllllllllllllllllllllllllllllllllllll",
"lllllld`chllegcllbc.h.k..lld`jl###`cllllllllllllllllllllllllllllllllllllllllllllllllllllllllllllllllllllllllllllllllllllllllllllllllllllllllllllllllllllllllllllllllllllllllllllllllllllllllllll",
"llllllleg`i#d``hkammc.jm.k.``##g``.lllllllllllcclfllfll#kllkklf#cflccllkcfclflchf#kk###kk#cllffkkffdflllfdclfd#ll#kdlkdcl#hccclccflcclfdclflllkdlllkdcflcflllchflclflfdfcflclkdkcclccckklflcclll",
"lllllllf`bi...jj.m.jj.....jj.jjba`llllllllllllj#lblcgclabblaihhikglhdlladbblbcbjkdebkakaek.#cj#aa#bbdllfabaljidllmebfajfkajfbcfjc`lkhfabic.#ldabjl.ib#bcj#lllbjkkhlbcib#malj#mjefblhddahfgckmlll",
"llllllllm.fcllclclllkfllcf#lllcfbkllllllllllll.#ljlkekljlic.#.fhfekddll.f.ecjfalll.fljl#mlj#cblddljcllljdl.kmclllljlc.lliclljcfjcem#dmdl.dmfliclbkblllhjjlllcallhdljfjlldgf.#lkmlbldddklcem#mlll",
"llllllllbk#llme#`kllibll#g`kllffjhllllllllllll.eial.hjlaahlaed#m#..mdll.#m...l.aflj#lblk.l.#lbldhlbadllbfldh.adllljfleifblllbaajf.jhd.#ldhm#lbll.m.li#lgdllllmeckeieliafd...flicleiekdemf.jhhlll",
"lllllllfiffllh`j`#llablllbilllc#djllllllllllll.kcbleialbjmljlb#h#dkekll.fjfbillhblj#ljlk.lj#lblhhlbflllj#lmdmkcllljfcjllilllbf#jf.#ek.klhdmflbllbdbl.mlbfllllldjkmlbfjclm#.eckmlcbchdddlfm#ehlll",
"llllllldjffllhilakllbjlll.bllllf#iclllllllllllj#lbkjcbkjlifi.bdbkml`dllid.fkgch.jljffack.lhbj.lhhlb.kllkahacjfllllbfcahf.ihfjffjfjlemfamacjjk.bmblb.bhlbckfllm.jkhlbcim#hkc`fajhfblhdhbd#jle.lll",
"lllllllbd##fffff#fffllfff#fffffkcbklllllllllll#cl#fflff#l#fd.l#hffl#fllh#fclklmjll#ccmlffllm.llfflk.dlllkjfl#cllll#llh.flm.c#ll#c#l#flkjfl#.dlmjllc..cl#cjcllmjlffl#ld.#fflkch..c#lfcf.hc#lf#lll",
"llllllcb#f##k######dlcd#########c.mllllllllllllllllllllllllllllllllllllllllllllllllllllllllllllllllllllllllllllllllllllllllllllllllllllllllllllllllllllllfllllllllllllllllllllllllllllllllllllll",
"llllllkahmmmmmmmhd###df#dmmmm.mmm.illlllllllllllllllllllllllllllllllllllllllllllllllllllllllllllllllllllllllllllllllllllllllllllllllllllllllllllllllllllllllllllllllllllllllllllllllllllllllllll",
"llllllheeeeeaeeegjfffff#ageeeaeeeaalllllllllllllllllllllllllllllllllllllllllllllllllllllllllllllllllllllllllllllllllllllllllllllllllllllllllllllllllllllllllllllllllllllllllllllllllllllllllllll",
"llllllllllllllllebjjjbjjajllllllllllllllllllllllllllllllllllllllllllllllllllllllllllllllllllllllllllllllllllllllllllllllllllllllllllllllllllllllllllllllllllllllllllllllllllllllllllllllllllllll",
"lllllllllllllllf`````````allllllllllllllllllllllllllllllllllllllllllllllllllllllllllllllllllllllllllllllllllllllllllllllllllllllllllllllllllllllllllllllllllllllllllllllllllllllllllllllllllllll"
};
